{"title":"God Loves Caviar 2012 DVDRip XviD AC3-GreekEagle12","uid":8268065,"size":1129163049,"categoryP":"video","categoryS":"movies","magnet":"?xt=urn:btih:c29d1ec95f0e7b5e5e95bdec2ef17f9bfe7b92d4&amp;dn=God+Loves+Caviar+2012+DVDRip+XviD+AC3-GreekEagle12&amp;tr=udp%3A%2F%2Ftracker.openbittorrent.com%3A80&amp;tr=udp%3A%2F%2Fopen.demonii.com%3A1337&amp;tr=udp%3A%2F%2Ftracker.coppersurfer.tk%3A6969&amp;tr=udp%3A%2F%2Fexodus.desync.com%3A6969","seeders":2,"leechers":0,"uploader":"GREEKEAGLE12","files":-1,"time":1363547948,"description":"FILE: God Loves Caviar 2012 DVDRip XviD AC3-GreekEagle12\nRE-ENCODE: GreekEagle12\nSOURCE: God Loves Caviar DVDRip Greek Movie Guesswhoo VMTeam\n-------------------------------------------------------------------------------------\nLanguages: English, Greek, Russian\nSubtitles: Greek\n-------------------------------------------------------------------------------------\n\nGOD LOVES CAVIAR\n\nPlot\n----\nGod Loves Caviar is the compelling story of IOANNIS VARVAKIS, and his journey from humble Greek pirate to international caviar millionaire, with the ear of Catherine the Great of Russia. His wealth and power, however, do not give him contentment, and his boundless ambition only brings suffering, until he gives everything away, including himself, in the name of love. This epic tale, based on Varvakis' real life, moves from the Greek island of Psara to the court of Catherine the Great in Russia and the shores of the Caspian Sea, and then back to Greece, a country torn by civil war and the fight for independence, during the Revolution of 1821 against the Ottoman Empire.\n\nIt is based on the true story of Greek pirate turned businessman Ioannis Varvakis, who made his fortune selling caviar in Russia and all over the world. Varvakis strives all his life for freedom for himself and then for his country, only to find that freedom cannot be won until it is shared.\n\nMedia Info\n----------\n\nGeneral\nComplete name                            : God Loves Caviar 2012 DVDRip XviD AC3-GreekEagle12.avi\nFormat                                   : AVI\nFormat/Info                              : Audio Video Interleave\nFile size                                : 1.03 GiB\nDuration                                 : 1h 37mn\nOverall bit rate                         : 1 507 Kbps\nWriting library                          : VirtualDub build 32842/release\n\nVideo\nID                                       : 0\nFormat                                   : MPEG-4 Visual\nFormat profile                           : Advanced Simple@L5\nFormat settings, BVOP                    : 2\nFormat settings, QPel                    : No\nFormat settings, GMC                     : No warppoints\nFormat settings, Matrix                  : Default (H.263)\nMuxing mode                              : Packed bitstream\nCodec ID                                 : XVID\nCodec ID/Hint                            : XviD\nDuration                                 : 1h 37mn\nBit rate                                 : 1 306 Kbps\nWidth                                    : 720 pixels\nHeight                                   : 384 pixels\nDisplay aspect ratio                     : 1.85:1\nFrame rate                               : 25.000 fps\nColor space                              : YUV\nChroma subsampling                       : 4:2:0\nBit depth                                : 8 bits\nScan type                                : Progressive\nCompression mode                         : Lossy\nBits/(Pixel*Frame)                       : 0.189\nStream size                              : 913 MiB (87%)\nWriting library                          : XviD 64\n\nAudio\nID                                       : 1\nFormat                                   : AC-3\nFormat/Info                              : Audio Coding 3\nMode extension                           : CM (complete main)\nFormat settings, Endianness              : Big\nCodec ID                                 : 2000\nDuration                                 : 1h 37mn\nBit rate mode                            : Constant\nBit rate                                 : 192 Kbps\nChannel(s)                               : 2 channels\nChannel positions                        : Front: L R\nSampling rate                            : 44.1 KHz\nBit depth                                : 16 bits\nCompression mode                         : Lossy\nStream size                              : 134 MiB (13%)\nAlignment                                : Aligned on interleaves\nInterleave, duration                     : 40 ms (1.00 video frame)\nInterleave, preload duration             : 522 ms","torrent":{"xt":"urn:btih:c29d1ec95f0e7b5e5e95bdec2ef17f9bfe7b92d4","amp;dn":"God+Loves+Caviar+2012+DVDRip+XviD+AC3-GreekEagle12","amp;tr":["udp%3A%2F%2Ftracker.openbittorrent.com%3A80","udp%3A%2F%2Fopen.demonii.com%3A1337","udp%3A%2F%2Ftracker.coppersurfer.tk%3A6969","udp%3A%2F%2Fexodus.desync.com%3A6969"],"infoHash":"c29d1ec95f0e7b5e5e95bdec2ef17f9bfe7b92d4","infoHashBuffer":{"type":"Buffer","data":[194,157,30,201,95,14,123,94,94,149,189,236,46,241,127,155,254,123,146,212]},"announce":[],"urlList":[]}}